<mxfile host="app.diagrams.net" modified="2023-04-19T14:15:54.512Z" agent="Mozilla/5.0 (Windows NT 10.0; Win64; x64) AppleWebKit/537.36 (KHTML, like Gecko) Chrome/112.0.0.0 Safari/537.36" etag="D4AWATA_Kz7ovQ4fGRgf" version="21.2.0" type="github">
  <diagram name="Page-1" id="rpqFHuuSEjrriumWxegb">
    <mxGraphModel dx="1235" dy="684" grid="1" gridSize="10" guides="1" tooltips="1" connect="1" arrows="1" fold="1" page="1" pageScale="1" pageWidth="850" pageHeight="1100" math="0" shadow="0">
      <root>
        <mxCell id="0" />
        <mxCell id="1" parent="0" />
        <mxCell id="G95UbHD1Zl7umgouyRme-18" style="edgeStyle=orthogonalEdgeStyle;rounded=0;orthogonalLoop=1;jettySize=auto;html=1;exitX=1;exitY=0.5;exitDx=0;exitDy=0;entryX=0.004;entryY=0.233;entryDx=0;entryDy=0;entryPerimeter=0;" edge="1" parent="1" source="G95UbHD1Zl7umgouyRme-1" target="G95UbHD1Zl7umgouyRme-5">
          <mxGeometry relative="1" as="geometry" />
        </mxCell>
        <mxCell id="G95UbHD1Zl7umgouyRme-19" style="edgeStyle=orthogonalEdgeStyle;rounded=0;orthogonalLoop=1;jettySize=auto;html=1;exitX=1;exitY=0.25;exitDx=0;exitDy=0;entryX=0;entryY=0.25;entryDx=0;entryDy=0;" edge="1" parent="1" source="G95UbHD1Zl7umgouyRme-1" target="G95UbHD1Zl7umgouyRme-4">
          <mxGeometry relative="1" as="geometry" />
        </mxCell>
        <mxCell id="G95UbHD1Zl7umgouyRme-1" value="" style="rounded=1;whiteSpace=wrap;html=1;fillColor=#ffe6cc;strokeColor=#d79b00;" vertex="1" parent="1">
          <mxGeometry x="305" y="45" width="240" height="60" as="geometry" />
        </mxCell>
        <mxCell id="G95UbHD1Zl7umgouyRme-2" value="&lt;b&gt;&lt;font style=&quot;font-size: 18px;&quot;&gt;Data Bridge&lt;/font&gt;&lt;/b&gt;" style="text;html=1;strokeColor=none;fillColor=none;align=center;verticalAlign=middle;whiteSpace=wrap;rounded=0;" vertex="1" parent="1">
          <mxGeometry x="365" y="60" width="130" height="30" as="geometry" />
        </mxCell>
        <mxCell id="G95UbHD1Zl7umgouyRme-3" value="" style="shape=cylinder3;whiteSpace=wrap;html=1;boundedLbl=1;backgroundOutline=1;size=15;fillColor=#f0a30a;fontColor=#000000;strokeColor=#BD7000;" vertex="1" parent="1">
          <mxGeometry x="730" y="20" width="90" height="110" as="geometry" />
        </mxCell>
        <mxCell id="G95UbHD1Zl7umgouyRme-4" value="&lt;font style=&quot;font-size: 15px;&quot;&gt;&lt;b&gt;Click House&lt;/b&gt;&lt;/font&gt;" style="text;html=1;strokeColor=none;fillColor=none;align=center;verticalAlign=middle;whiteSpace=wrap;rounded=0;" vertex="1" parent="1">
          <mxGeometry x="730" y="60" width="90" height="30" as="geometry" />
        </mxCell>
        <mxCell id="G95UbHD1Zl7umgouyRme-5" value="" style="shape=cylinder3;whiteSpace=wrap;html=1;boundedLbl=1;backgroundOutline=1;size=15;fillColor=#b0e3e6;strokeColor=#0e8088;" vertex="1" parent="1">
          <mxGeometry x="730" y="160" width="90" height="110" as="geometry" />
        </mxCell>
        <mxCell id="G95UbHD1Zl7umgouyRme-6" value="&lt;font style=&quot;font-size: 15px;&quot;&gt;&lt;b&gt;MariaDB&lt;/b&gt;&lt;/font&gt;" style="text;html=1;strokeColor=none;fillColor=none;align=center;verticalAlign=middle;whiteSpace=wrap;rounded=0;" vertex="1" parent="1">
          <mxGeometry x="730" y="200" width="90" height="30" as="geometry" />
        </mxCell>
        <mxCell id="G95UbHD1Zl7umgouyRme-16" style="edgeStyle=orthogonalEdgeStyle;rounded=0;orthogonalLoop=1;jettySize=auto;html=1;exitX=0.5;exitY=0;exitDx=0;exitDy=0;entryX=0.5;entryY=1;entryDx=0;entryDy=0;" edge="1" parent="1" source="G95UbHD1Zl7umgouyRme-7" target="G95UbHD1Zl7umgouyRme-1">
          <mxGeometry relative="1" as="geometry" />
        </mxCell>
        <mxCell id="G95UbHD1Zl7umgouyRme-7" value="" style="rounded=1;whiteSpace=wrap;html=1;fillColor=#ffe6cc;strokeColor=#d79b00;" vertex="1" parent="1">
          <mxGeometry x="305" y="185" width="240" height="60" as="geometry" />
        </mxCell>
        <mxCell id="G95UbHD1Zl7umgouyRme-17" style="edgeStyle=orthogonalEdgeStyle;rounded=0;orthogonalLoop=1;jettySize=auto;html=1;entryX=0;entryY=0.5;entryDx=0;entryDy=0;" edge="1" parent="1" target="G95UbHD1Zl7umgouyRme-6">
          <mxGeometry relative="1" as="geometry">
            <mxPoint x="550" y="215" as="sourcePoint" />
          </mxGeometry>
        </mxCell>
        <mxCell id="G95UbHD1Zl7umgouyRme-8" value="&lt;b&gt;&lt;font style=&quot;font-size: 18px;&quot;&gt;Withdraw Approve Service&lt;/font&gt;&lt;/b&gt;" style="text;html=1;strokeColor=none;fillColor=none;align=center;verticalAlign=middle;whiteSpace=wrap;rounded=0;" vertex="1" parent="1">
          <mxGeometry x="308" y="200" width="235" height="30" as="geometry" />
        </mxCell>
        <mxCell id="G95UbHD1Zl7umgouyRme-11" style="edgeStyle=orthogonalEdgeStyle;rounded=0;orthogonalLoop=1;jettySize=auto;html=1;exitX=0.5;exitY=0;exitDx=0;exitDy=0;exitPerimeter=0;entryX=0;entryY=0.5;entryDx=0;entryDy=0;" edge="1" parent="1" source="G95UbHD1Zl7umgouyRme-9" target="G95UbHD1Zl7umgouyRme-1">
          <mxGeometry relative="1" as="geometry" />
        </mxCell>
        <mxCell id="G95UbHD1Zl7umgouyRme-9" value="" style="shape=cylinder3;whiteSpace=wrap;html=1;boundedLbl=1;backgroundOutline=1;size=15;direction=south;fillColor=#ffcd28;strokeColor=#d79b00;gradientColor=#ffa500;" vertex="1" parent="1">
          <mxGeometry x="90" y="55" width="130" height="40" as="geometry" />
        </mxCell>
        <mxCell id="G95UbHD1Zl7umgouyRme-10" value="&lt;b&gt;&lt;font style=&quot;font-size: 12px;&quot;&gt;Balance Actions&lt;/font&gt;&lt;/b&gt;" style="text;html=1;strokeColor=none;fillColor=none;align=center;verticalAlign=middle;whiteSpace=wrap;rounded=0;" vertex="1" parent="1">
          <mxGeometry x="90" y="60" width="100" height="30" as="geometry" />
        </mxCell>
        <mxCell id="G95UbHD1Zl7umgouyRme-15" style="edgeStyle=orthogonalEdgeStyle;rounded=0;orthogonalLoop=1;jettySize=auto;html=1;entryX=0.003;entryY=0.595;entryDx=0;entryDy=0;entryPerimeter=0;" edge="1" parent="1" source="G95UbHD1Zl7umgouyRme-12" target="G95UbHD1Zl7umgouyRme-7">
          <mxGeometry relative="1" as="geometry" />
        </mxCell>
        <mxCell id="G95UbHD1Zl7umgouyRme-12" value="" style="shape=cylinder3;whiteSpace=wrap;html=1;boundedLbl=1;backgroundOutline=1;size=15;direction=south;fillColor=#ffcd28;strokeColor=#d79b00;gradientColor=#ffa500;" vertex="1" parent="1">
          <mxGeometry x="90" y="200" width="130" height="40" as="geometry" />
        </mxCell>
        <mxCell id="G95UbHD1Zl7umgouyRme-13" value="&lt;b&gt;&lt;font style=&quot;font-size: 12px;&quot;&gt;Witdraw event&lt;/font&gt;&lt;/b&gt;" style="text;html=1;strokeColor=none;fillColor=none;align=center;verticalAlign=middle;whiteSpace=wrap;rounded=0;" vertex="1" parent="1">
          <mxGeometry x="90" y="205" width="100" height="30" as="geometry" />
        </mxCell>
        <mxCell id="G95UbHD1Zl7umgouyRme-21" value="" style="endArrow=classic;html=1;rounded=0;entryX=0;entryY=0.75;entryDx=0;entryDy=0;" edge="1" parent="1" target="G95UbHD1Zl7umgouyRme-10">
          <mxGeometry width="50" height="50" relative="1" as="geometry">
            <mxPoint x="10" y="110" as="sourcePoint" />
            <mxPoint x="80" y="80" as="targetPoint" />
          </mxGeometry>
        </mxCell>
        <mxCell id="G95UbHD1Zl7umgouyRme-22" value="" style="endArrow=classic;html=1;rounded=0;entryX=0;entryY=0.5;entryDx=0;entryDy=0;" edge="1" parent="1" target="G95UbHD1Zl7umgouyRme-10">
          <mxGeometry width="50" height="50" relative="1" as="geometry">
            <mxPoint x="10" y="75" as="sourcePoint" />
            <mxPoint x="50" y="60" as="targetPoint" />
          </mxGeometry>
        </mxCell>
        <mxCell id="G95UbHD1Zl7umgouyRme-23" value="" style="endArrow=classic;html=1;rounded=0;entryX=0;entryY=0.25;entryDx=0;entryDy=0;" edge="1" parent="1" target="G95UbHD1Zl7umgouyRme-10">
          <mxGeometry width="50" height="50" relative="1" as="geometry">
            <mxPoint x="10" y="40" as="sourcePoint" />
            <mxPoint x="100" y="93" as="targetPoint" />
          </mxGeometry>
        </mxCell>
        <mxCell id="G95UbHD1Zl7umgouyRme-24" value="" style="endArrow=classic;html=1;rounded=0;entryX=0;entryY=0.5;entryDx=0;entryDy=0;" edge="1" parent="1" target="G95UbHD1Zl7umgouyRme-13">
          <mxGeometry width="50" height="50" relative="1" as="geometry">
            <mxPoint x="10" y="220" as="sourcePoint" />
            <mxPoint x="50" y="230" as="targetPoint" />
          </mxGeometry>
        </mxCell>
        <mxCell id="G95UbHD1Zl7umgouyRme-26" style="edgeStyle=orthogonalEdgeStyle;rounded=0;orthogonalLoop=1;jettySize=auto;html=1;entryX=0.75;entryY=1;entryDx=0;entryDy=0;" edge="1" parent="1" source="G95UbHD1Zl7umgouyRme-25" target="G95UbHD1Zl7umgouyRme-7">
          <mxGeometry relative="1" as="geometry" />
        </mxCell>
        <mxCell id="G95UbHD1Zl7umgouyRme-25" value="&lt;b style=&quot;border-color: var(--border-color);&quot;&gt;&lt;font style=&quot;border-color: var(--border-color); font-size: 20px;&quot;&gt;Risk Backend&lt;/font&gt;&lt;/b&gt;" style="rounded=1;whiteSpace=wrap;html=1;fillColor=#ffcccc;strokeColor=#36393d;" vertex="1" parent="1">
          <mxGeometry x="308" y="370" width="215" height="60" as="geometry" />
        </mxCell>
      </root>
    </mxGraphModel>
  </diagram>
</mxfile>
